<?xml version="1.0" encoding="UTF-8" standalone="no"?>
<svg
   viewBox="0 0 64 64"
   width="128"
   height="128"
   version="1.1"
   id="svg296"
   xmlns="http://www.w3.org/2000/svg"
   xmlns:svg="http://www.w3.org/2000/svg">
  <defs
     id="defs300" />
  <linearGradient
     id="WLIJulVjW6wsxbwoEFfWIa"
     x1="31.940001"
     x2="31.940001"
     y1="8.5340004"
     y2="56.18"
     gradientUnits="userSpaceOnUse">
    <stop
       offset="0"
       stop-color="#6dc7ff"
       id="stop278" />
    <stop
       offset=".492"
       stop-color="#aab9ff"
       id="stop280" />
    <stop
       offset="1"
       stop-color="#e6abff"
       id="stop282" />
  </linearGradient>
  <polygon
     fill="url(#WLIJulVjW6wsxbwoEFfWIa)"
     points="31.9,52.45 17.78,48.44 14.46,11.71 49.42,11.71 46.2,48.53 "
     id="polygon285"
     style="fill:url(#WLIJulVjW6wsxbwoEFfWIa)"
     transform="matrix(1.0433797,0,0,1.0340199,-0.47182635,1.2900633)" />
  <polygon
     fill="#ffffff"
     points="26.474,39.657 31.991,41.142 37.614,39.445 38.038,32.867 20.851,32.973 20.426,27.774 38.569,27.774 38.887,22.363 19.684,22.257 19.153,17.377 44.404,17.377 42.176,42.734 31.885,46.129 21.699,43.158 21.063,35.838 25.837,35.838 "
     id="polygon287"
     transform="matrix(1.0433797,0,0,1.0340199,-0.47182635,1.2900633)" />
  <linearGradient
     id="WLIJulVjW6wsxbwoEFfWIb"
     x1="31.938999"
     x2="31.938999"
     y1="3.214"
     y2="58.257999"
     gradientUnits="userSpaceOnUse"
     gradientTransform="matrix(1.0433797,0,0,1.0340199,-0.47182635,1.2900633)">
    <stop
       offset="0"
       stop-color="#1a6dff"
       id="stop289" />
    <stop
       offset="1"
       stop-color="#c822ff"
       id="stop291" />
  </linearGradient>
  <path
     fill="url(#WLIJulVjW6wsxbwoEFfWIb)"
     d="M 54.594626,10.218825 C 54.426642,10.034769 54.187708,9.9292992 53.939384,9.9292992 H 11.758671 c -0.248324,0 -0.477868,0.1054698 -0.646895,0.2895258 -0.169028,0.184055 -0.256672,0.430152 -0.230587,0.666943 l 3.869895,42.565428 c 0.03547,0.369145 0.292146,0.666943 0.646896,0.772413 l 17.154206,4.826805 c 0.0793,0.01758 0.159637,0.02585 0.248324,0.02585 0.07095,0 0.150247,-0.0083 0.230587,-0.02585 L 50.4065,54.329079 c 0.363096,-0.09616 0.619768,-0.403268 0.655243,-0.763107 l 3.76347,-42.680204 c 0.01774,-0.246097 -0.0626,-0.482888 -0.230587,-0.666943 z M 31.914681,57.040279 16.461183,52.696361 12.733188,11.684031 h 19.181493 v 6.696313 H 19.507852 c -0.248324,0 -0.487258,0.10547 -0.655242,0.289525 -0.167984,0.184056 -0.248325,0.420846 -0.230587,0.666943 l 0.495605,5.151487 c 0.04382,0.456003 0.424656,0.798263 0.88583,0.798263 h 11.911223 v 3.844486 h -11.3791 c -0.248324,0 -0.487258,0.10547 -0.655242,0.289526 -0.167984,0.184055 -0.248324,0.420846 -0.230587,0.666943 l 0.504996,5.266263 c 0.04382,0.456003 0.424655,0.798263 0.885829,0.798263 h 10.874104 v 6.424366 L 27.859064,41.400728 27.47823,37.916081 c -0.04382,-0.44773 -0.424655,-0.780685 -0.876439,-0.780685 h -5.296195 c -0.248325,0 -0.487259,0.10547 -0.655243,0.289526 -0.167984,0.184055 -0.248324,0.420846 -0.230587,0.666943 l 0.752277,7.898877 c 0.03548,0.359839 0.292146,0.666943 0.646895,0.763107 l 10.095743,2.861133 z M 33.68634,36.153077 h 4.675384 l -0.424655,5.133909 -4.250729,1.228416 z m -0.753321,8.407616 0.752277,-0.219212 5.331671,-1.53552 c 0.353706,-0.10547 0.60203,-0.412574 0.637505,-0.772413 l 0.548818,-6.68804 C 40.22103,35.099411 40.13234,34.862621 39.972703,34.678565 39.804718,34.502782 39.565785,34.397312 39.31746,34.397312 H 33.685296 31.914681 21.846066 l -0.337011,-3.510498 h 10.405626 1.771659 6.066209 c 0.460131,0 0.840965,-0.351567 0.88583,-0.807569 l 0.46013,-5.599218 C 41.116249,24.23393 41.027559,23.99714 40.867922,23.813084 40.699938,23.637301 40.461004,23.531831 40.21268,23.531831 H 33.68634 31.914681 20.80999 l -0.327621,-3.396756 h 11.432312 1.771659 11.415617 l -2.391426,25.100833 -9.024191,2.606764 -0.779405,0.228518 -0.992254,-0.281253 -9.032539,-2.554029 -0.60203,-6.34578 h 3.524537 l 0.363096,3.281979 c 0.03548,0.351567 0.2838,0.649365 0.629158,0.745528 l 5.118821,1.492091 0.522734,0.148899 c 0.158593,0.0455 0.334924,0.0455 0.494561,0.0021 z M 33.68634,25.287596 h 5.570604 L 38.93767,29.132082 H 33.68634 Z M 49.343296,52.801831 33.68634,57.049585 v -7.372562 l 10.095742,-2.92214 c 0.345359,-0.09616 0.60203,-0.403268 0.637505,-0.763107 L 46.96126,19.337846 C 46.979,19.091749 46.8997,18.854959 46.730673,18.670903 46.562689,18.486848 46.323755,18.381378 46.075431,18.381378 H 33.68634 v -6.696313 h 19.287918 z"
     id="path294"
     style="fill:url(#WLIJulVjW6wsxbwoEFfWIb);stroke-width:1.03869" />
</svg>
