<?xml version="1.0" encoding="UTF-8" standalone="no"?>
<svg
   viewBox="0 0 64 64"
   width="128"
   height="128"
   version="1.1"
   id="svg210"
   xmlns="http://www.w3.org/2000/svg"
   xmlns:svg="http://www.w3.org/2000/svg">
  <defs
     id="defs214" />
  <linearGradient
     id="slr0fspJZ8Sloslbv8ri_a"
     x1="32.091999"
     x2="32.091999"
     y1="7.7659998"
     y2="57.066002"
     gradientUnits="userSpaceOnUse"
     gradientTransform="matrix(1.042638,0,0,1.042638,-0.45218116,2.1271058)">
    <stop
       offset="0"
       stop-color="#1a6dff"
       id="stop187" />
    <stop
       offset="1"
       stop-color="#c822ff"
       id="stop189" />
  </linearGradient>
  <path
     fill="url(#slr0fspJZ8Sloslbv8ri_a)"
     d="M 55.137105,10.806024 C 54.940046,10.59124 54.660619,10.468209 54.368681,10.468209 H 13.732908 c -0.875816,0 -1.716182,0.370137 -2.307357,1.016572 -0.591176,0.646436 -0.886243,1.514954 -0.808045,2.386599 l 3.459473,39.216742 c 0.113647,1.281402 1.020742,2.378257 2.257311,2.731711 l 15.717767,4.491685 c 0.281513,0.07924 0.570323,0.119903 0.859134,0.119903 0.288811,0 0.578664,-0.04066 0.859134,-0.119903 l 15.717767,-4.491685 c 1.236569,-0.353454 2.143664,-1.451352 2.257311,-2.732754 l 3.660702,-41.48448 c 0.02711,-0.290896 -0.0709,-0.580749 -0.269,-0.796575 z m -5.467594,42.096508 c -0.03858,0.43478 -0.333644,0.792405 -0.752784,0.911266 l -15.717768,4.491684 c -0.187675,0.05526 -0.386818,0.05526 -0.574493,0 L 16.906698,53.813798 C 16.488601,53.694937 16.192491,53.337312 16.153914,52.903575 L 12.694441,13.687876 c -0.02607,-0.295067 0.06881,-0.577622 0.270043,-0.795533 0.200187,-0.218954 0.472315,-0.338857 0.768424,-0.338857 H 53.23012 Z"
     id="path192"
     style="fill:url(#slr0fspJZ8Sloslbv8ri_a);stroke-width:1.04264" />
  <linearGradient
     id="slr0fspJZ8Sloslbv8ri_b"
     x1="32.000999"
     x2="32.000999"
     y1="7.7659998"
     y2="57.066002"
     gradientUnits="userSpaceOnUse"
     gradientTransform="matrix(1.042638,0,0,1.042638,-0.45218116,2.1271058)">
    <stop
       offset="0"
       stop-color="#1a6dff"
       id="stop194" />
    <stop
       offset="1"
       stop-color="#c822ff"
       id="stop196" />
  </linearGradient>
  <path
     fill="url(#slr0fspJZ8Sloslbv8ri_b)"
     d="m 18.858517,52.202922 13.768034,3.933873 c 0.09384,0.02607 0.18976,0.03962 0.285683,0.03962 0.09592,0 0.192888,-0.01355 0.285683,-0.03962 l 13.768034,-3.933873 c 0.41497,-0.118861 0.71525,-0.481699 0.752785,-0.911265 l 3.134169,-35.518505 c 0.02502,-0.290896 -0.07194,-0.58075 -0.270043,-0.796576 -0.197059,-0.214783 -0.476485,-0.337815 -0.768424,-0.337815 H 16.011072 c -0.291938,0 -0.571365,0.123032 -0.768424,0.337815 -0.197058,0.215826 -0.295066,0.504637 -0.270043,0.796576 l 3.133127,35.518505 c 0.03754,0.429566 0.336772,0.792404 0.752785,0.911265 z M 48.675877,16.724037 45.704359,50.394988 32.912234,54.050477 20.119066,50.394988 17.149633,16.724037 Z"
     id="path199"
     style="fill:url(#slr0fspJZ8Sloslbv8ri_b);stroke-width:1.04264" />
  <g
     id="g208"
     transform="matrix(1.042638,0,0,1.042638,-0.45218116,2.1271057)">
    <linearGradient
       id="slr0fspJZ8Sloslbv8ri_c"
       x1="31.995001"
       x2="31.995001"
       y1="19.575001"
       y2="40.625999"
       gradientUnits="userSpaceOnUse">
      <stop
         offset="0"
         stop-color="#6dc7ff"
         id="stop201" />
      <stop
         offset="1"
         stop-color="#e6abff"
         id="stop203" />
    </linearGradient>
    <path
       fill="url(#slr0fspJZ8Sloslbv8ri_c)"
       d="m 41.661,23.541 0.245,-3 C 41.93,20.249 41.7,20 41.408,20 H 22.583 c -0.289,0 -0.517,0.244 -0.499,0.532 l 0.698,11 C 22.798,31.795 23.017,32 23.281,32 h 12.916 c 0.289,0 0.518,0.245 0.499,0.533 l -0.269,4.061 c -0.013,0.201 -0.146,0.375 -0.337,0.44 l -3.982,1.36 c -0.105,0.036 -0.218,0.036 -0.323,0 L 27.8,37.033 C 27.61,36.968 27.478,36.797 27.463,36.597 L 27.304,34.463 C 27.285,34.202 27.067,34 26.805,34 h -3.349 c -0.29,0 -0.519,0.246 -0.499,0.535 l 0.374,5.319 c 0.014,0.203 0.15,0.376 0.342,0.44 l 8.115,2.671 c 0.102,0.033 0.211,0.033 0.313,0 l 8.113,-2.67 c 0.194,-0.064 0.33,-0.24 0.343,-0.444 l 0.707,-11.32 C 41.282,28.243 41.054,28 40.765,28 H 27.404 c -0.26,0 -0.477,-0.2 -0.498,-0.459 l -0.245,-3 C 26.638,24.249 26.867,24 27.16,24 h 14.003 c 0.26,0 0.477,-0.2 0.498,-0.459 z"
       id="path206"
       style="fill:url(#slr0fspJZ8Sloslbv8ri_c)" />
  </g>
</svg>
