<?xml version="1.0" encoding="UTF-8" standalone="no"?>
<svg
   viewBox="0 0 64 64"
   width="128"
   height="128"
   version="1.1"
   id="svg272"
   xmlns="http://www.w3.org/2000/svg"
   xmlns:svg="http://www.w3.org/2000/svg">
  <defs
     id="defs276" />
  <linearGradient
     id="NYqtCkFrnKYpo6Y7I~_Wea"
     x1="31.287001"
     x2="31.287001"
     y1="3.3829999"
     y2="62.904999"
     gradientUnits="userSpaceOnUse"
     gradientTransform="matrix(0.86461227,0,0,0.86461227,5.6506402,2.6054418)">
    <stop
       offset="0"
       stop-color="#1a6dff"
       id="stop216" />
    <stop
       offset="1"
       stop-color="#c822ff"
       id="stop218" />
  </linearGradient>
  <path
     fill="url(#NYqtCkFrnKYpo6Y7I~_Wea)"
     d="m 26.184317,44.857315 c -8.308924,2.30765 5.054524,7.075122 15.633055,2.568763 -1.732683,-0.670075 -2.973402,-1.443038 -2.973402,-1.443038 -4.719054,0.887957 -6.908252,0.957126 -11.189812,0.472078 -3.5354,-0.403774 -1.469841,-1.597803 -1.469841,-1.597803 z"
     id="path221"
     style="fill:url(#NYqtCkFrnKYpo6Y7I~_Wea);stroke-width:0.864612" />
  <linearGradient
     id="NYqtCkFrnKYpo6Y7I~_Web"
     x1="30.914"
     x2="30.914"
     y1="3.911"
     y2="62.581001"
     gradientUnits="userSpaceOnUse"
     gradientTransform="matrix(0.86461227,0,0,0.86461227,5.6506402,2.6054418)">
    <stop
       offset="0"
       stop-color="#1a6dff"
       id="stop223" />
    <stop
       offset="1"
       stop-color="#c822ff"
       id="stop225" />
  </linearGradient>
  <path
     fill="url(#NYqtCkFrnKYpo6Y7I~_Web)"
     d="m 40.550715,40.313777 c -6.251147,1.179331 -9.863497,1.141288 -14.438161,0.678721 -3.537128,-0.358814 -1.220832,-2.037891 -1.220832,-2.037891 -9.15365,2.975995 5.092566,6.351441 17.88364,2.687215 -1.360035,-0.469485 -2.224647,-1.328045 -2.224647,-1.328045 z"
     id="path228"
     style="fill:url(#NYqtCkFrnKYpo6Y7I~_Web);stroke-width:0.864612" />
  <linearGradient
     id="NYqtCkFrnKYpo6Y7I~_Wec"
     x1="39.018002"
     x2="39.018002"
     y1="3.2130001"
     y2="62.957001"
     gradientUnits="userSpaceOnUse"
     gradientTransform="matrix(0.86461227,0,0,0.86461227,5.6506402,2.6054418)">
    <stop
       offset="0"
       stop-color="#1a6dff"
       id="stop230" />
    <stop
       offset="1"
       stop-color="#c822ff"
       id="stop232" />
  </linearGradient>
  <path
     fill="url(#NYqtCkFrnKYpo6Y7I~_Wec)"
     d="m 45.453931,14.176548 c 0,0 -18.623748,4.609248 -9.728617,14.766713 2.624098,2.994152 -0.689096,5.688284 -0.689096,5.688284 0,0 6.662702,-3.408301 3.602839,-7.676892 -2.858408,-3.98154 -5.0502,-5.958908 6.814874,-12.778105 z"
     id="path235"
     style="fill:url(#NYqtCkFrnKYpo6Y7I~_Wec);stroke-width:0.864612" />
  <linearGradient
     id="NYqtCkFrnKYpo6Y7I~_Wed"
     x1="30.573999"
     x2="30.573999"
     y1="3.3729999"
     y2="62.926998"
     gradientUnits="userSpaceOnUse"
     gradientTransform="matrix(0.86461227,0,0,0.86461227,5.6506402,2.6054418)">
    <stop
       offset="0"
       stop-color="#1a6dff"
       id="stop237" />
    <stop
       offset="1"
       stop-color="#c822ff"
       id="stop239" />
  </linearGradient>
  <path
     fill="url(#NYqtCkFrnKYpo6Y7I~_Wed)"
     d="m 49.781315,49.221877 c 0,0 1.528635,1.251959 -1.6834,2.221189 -6.106756,1.839895 -25.415278,2.394976 -30.779332,0.07349 -1.928085,-0.834351 1.687723,-1.992066 2.825553,-2.235022 1.186248,-0.255926 1.864104,-0.208372 1.864104,-0.208372 -2.144239,-1.501832 -13.8605995,2.950057 -5.951126,4.224496 21.569482,3.478335 39.319107,-1.566678 33.724201,-4.075783 z"
     id="path242"
     style="fill:url(#NYqtCkFrnKYpo6Y7I~_Wed);stroke-width:0.864612" />
  <linearGradient
     id="NYqtCkFrnKYpo6Y7I~_Wee"
     x1="29.622"
     x2="29.622"
     y1="3.2130001"
     y2="62.957001"
     gradientUnits="userSpaceOnUse"
     gradientTransform="matrix(0.86461227,0,0,0.86461227,5.6506402,2.6054418)">
    <stop
       offset="0"
       stop-color="#1a6dff"
       id="stop244" />
    <stop
       offset="1"
       stop-color="#c822ff"
       id="stop246" />
  </linearGradient>
  <path
     fill="url(#NYqtCkFrnKYpo6Y7I~_Wee)"
     d="m 42.3664,36.122137 c 1.036671,-0.706388 2.470198,-1.318534 2.470198,-1.318534 0,0 -4.081835,0.727139 -8.146377,1.069525 -4.974115,0.415879 -10.313095,0.496288 -12.991664,0.139203 -6.34366,-0.844726 3.478335,-3.172262 3.478335,-3.172262 0,0 -3.813805,-0.25679 -8.505191,2.0059 -5.546488,2.675975 13.721397,3.893349 23.694699,1.276168 z"
     id="path249"
     style="fill:url(#NYqtCkFrnKYpo6Y7I~_Wee);stroke-width:0.864612" />
  <linearGradient
     id="NYqtCkFrnKYpo6Y7I~_Wef"
     x1="50.02"
     x2="50.02"
     y1="0.99900001"
     y2="64.288002"
     gradientUnits="userSpaceOnUse"
     gradientTransform="matrix(0.86461227,0,0,0.86461227,5.6506402,2.6054418)">
    <stop
       offset="0"
       stop-color="#1a6dff"
       id="stop251" />
    <stop
       offset="1"
       stop-color="#c822ff"
       id="stop253" />
  </linearGradient>
  <path
     fill="url(#NYqtCkFrnKYpo6Y7I~_Wef)"
     d="m 44.796826,42.96122 c -0.04669,0.13315 -0.204049,0.280999 -0.204049,0.280999 13.577871,-3.761928 8.5856,-13.259694 2.094956,-10.855207 -0.56978,0.213559 -0.868936,0.706388 -0.868936,0.706388 0,0 0.358814,-0.153036 1.162904,-0.329417 3.281203,-0.720222 7.981236,4.629998 -2.184875,10.197237 z"
     id="path256"
     style="fill:url(#NYqtCkFrnKYpo6Y7I~_Wef);stroke-width:0.864612" />
  <linearGradient
     id="NYqtCkFrnKYpo6Y7I~_Weg"
     x1="32"
     x2="32"
     y1="3.2130001"
     y2="62.957001"
     gradientUnits="userSpaceOnUse"
     gradientTransform="matrix(0.86461227,0,0,0.86461227,5.6506402,2.6054418)">
    <stop
       offset="0"
       stop-color="#1a6dff"
       id="stop258" />
    <stop
       offset="1"
       stop-color="#c822ff"
       id="stop260" />
  </linearGradient>
  <path
     fill="url(#NYqtCkFrnKYpo6Y7I~_Weg)"
     d="m 33.512771,32.740638 c -1.982556,-4.502901 -8.70751,-8.443803 0.0035,-15.355514 C 44.37926,8.7683976 38.80424,3.164846 38.80424,3.164846 c 2.249721,8.901183 -7.930224,11.588398 -11.604826,17.132292 -2.502188,3.776627 1.228614,7.834252 6.313399,12.4435 z"
     id="path263"
     style="fill:url(#NYqtCkFrnKYpo6Y7I~_Weg);stroke-width:0.864612" />
  <linearGradient
     id="NYqtCkFrnKYpo6Y7I~_Weh"
     x1="36.105999"
     x2="36.105999"
     y1="3.2119999"
     y2="62.958"
     gradientUnits="userSpaceOnUse"
     gradientTransform="matrix(0.86461227,0,0,0.86461227,5.6506402,2.6054418)">
    <stop
       offset="0"
       stop-color="#1a6dff"
       id="stop265" />
    <stop
       offset="1"
       stop-color="#c822ff"
       id="stop267" />
  </linearGradient>
  <path
     fill="url(#NYqtCkFrnKYpo6Y7I~_Weh)"
     d="m 45.160827,55.092595 c -8.30633,1.55976 -18.551121,1.377327 -24.627616,0.377835 0,0 1.244177,1.02716 7.640579,1.436121 9.732076,0.621656 24.676899,-0.34498 25.030525,-4.938665 0,0 -0.68045,1.741329 -8.043488,3.124709 z"
     id="path270"
     style="fill:url(#NYqtCkFrnKYpo6Y7I~_Weh);stroke-width:0.864612" />
</svg>
