<?xml version="1.0" encoding="UTF-8" standalone="no"?>
<svg
   viewBox="0 0 64 64"
   width="128"
   height="128"
   version="1.1"
   id="svg23"
   xmlns="http://www.w3.org/2000/svg"
   xmlns:svg="http://www.w3.org/2000/svg">
  <defs
     id="defs27" />
  <linearGradient
     id="LQd3PK_1N6yKkSdj1YnVda"
     x1="31.937"
     x2="31.937"
     y1="61"
     y2="7.125"
     gradientTransform="matrix(0.93274498,0,0,-0.91767142,2.7926715,66.940385)"
     gradientUnits="userSpaceOnUse">
    <stop
       offset="0"
       stop-color="#1a6dff"
       id="stop2" />
    <stop
       offset="1"
       stop-color="#c822ff"
       id="stop4" />
  </linearGradient>
  <path
     fill="url(#LQd3PK_1N6yKkSdj1YnVda)"
     d="m 32.523917,60.401976 c -0.08581,0 -0.170692,-0.01193 -0.252774,-0.03395 L 14.898768,55.550247 c -0.371232,-0.103697 -0.640796,-0.422129 -0.67624,-0.800209 l -3.964166,-42.78643 c -0.02332,-0.256948 0.06343,-0.512061 0.240648,-0.702019 0.176289,-0.190875 0.426264,-0.299161 0.688366,-0.299161 h 42.789676 c 0.261168,0 0.510211,0.107368 0.6865,0.297326 0.176289,0.18904 0.2649,0.442317 0.242514,0.699265 l -3.73098,42.78643 c -0.03265,0.381752 -0.305008,0.703854 -0.679971,0.805716 L 32.77296,60.36894 c -0.08208,0.02202 -0.165096,0.03304 -0.249043,0.03304 z m -16.501191,-6.446642 16.50399,4.576428 16.846307,-4.579181 3.587337,-41.15481 H 12.209664 Z"
     id="path7"
     style="fill:url(#LQd3PK_1N6yKkSdj1YnVda);stroke-width:0.925178" />
  <linearGradient
     id="LQd3PK_1N6yKkSdj1YnVdb"
     x1="41.5"
     x2="41.5"
     y1="56"
     y2="12"
     gradientTransform="matrix(0.93274498,0,0,-0.91767142,2.7926715,66.940385)"
     gradientUnits="userSpaceOnUse">
    <stop
       offset="0"
       stop-color="#6dc7ff"
       id="stop9" />
    <stop
       offset="1"
       stop-color="#e6abff"
       id="stop11" />
  </linearGradient>
  <path
     fill="url(#LQd3PK_1N6yKkSdj1YnVdb)"
     d="m 32.64051,15.550785 v 40.377543 l 14.224361,-3.670686 3.497794,-36.706857 z m 14.340955,17.091631 -1.049339,13.535653 -11.659312,2.867723 v -4.817775 l 8.394705,-2.294178 0.116593,-4.014813 -8.627891,1.261798 v -18.12401 h 13.641395 l -0.349779,4.932484 -8.97767,0.114709 v 7.45608 z"
     id="path14"
     style="fill:url(#LQd3PK_1N6yKkSdj1YnVdb);stroke-width:0.925178" />
  <linearGradient
     id="LQd3PK_1N6yKkSdj1YnVdc"
     x1="23.313"
     x2="23.313"
     y1="50"
     y2="19.375"
     gradientTransform="matrix(1,0,0,-1,0,66)"
     gradientUnits="userSpaceOnUse">
    <stop
       offset="0"
       stop-color="#6dc7ff"
       id="stop16" />
    <stop
       offset="1"
       stop-color="#e6abff"
       id="stop18" />
  </linearGradient>
  <polygon
     fill="url(#LQd3PK_1N6yKkSdj1YnVdc)"
     points="30,46.625 16.625,42.875 16.625,37.375 25.625,39.875 25.625,16 30,16 "
     id="polygon21"
     style="fill:url(#LQd3PK_1N6yKkSdj1YnVdc)"
     transform="matrix(0.93274498,0,0,0.91767142,2.7926715,6.3740707)" />
</svg>
